<svg xmlns="http://www.w3.org/2000/svg" viewBox="0 0 633.9 1065.84"><defs><style>.cls-1{fill:#e52020;}</style></defs><g id="Layer_2" data-name="Layer 2"><g id="Layer_3" data-name="Layer 3"><path d="M628.24,444.49c-3.2-3.32-.66-7.24-.66-7.24,6.74-27.87-39.83-54.47-39.83-54.47C556.77,360.66,551,368,551,368c8,0,14.64,11.07,14.64,11.07-22.47-15.32-31.66-5.62-31.66-5.62,12.59-1,22.3,8.68,22.3,8.68-25.88-12.25-35.41-2.21-35.41-2.21,9.77-1.82,17.93,3.44,18.36,3.73-15.65-3.89-44.23,5.46-44.23,5.46-51.06,15.83-46,18.38-48-14.81s23-67.91,23-67.91c13.27-32.17-14.81-58.73-14.81-58.73C425.53,203.21,406.64,120,406.64,120c-17.87-95.48-41.19-79.65-41.19-79.65-2.73-30.64-21.79-26.56-21.79-26.56-25.19,1-23.15,35.07-23.15,35.07-6.13-10.56-18.72-5.11-18.72-5.11-14.64,4.08,3.4,50.72,3.4,50.72-4.42-1.36-11.23-45.95-25.53-31-14.07,14.74-7.21,32.7-7,33.27-.41-.4-11.45-11.26-19.05-4.07S258,121,258.53,122c-77.09-117.4-102.44-94.6-102.44-94.6C137.53-10.24,121,1.85,121,1.85c-8.17,12.76,5.45,53.1,5.45,53.1-7.32-5.1-11.41,1.88-11.41,1.88-4.59,19.74,9.2,38,9.2,38-11.92-9.19-18.9,2.22-18.9,2.22-2.9,12.71,7.74,28.31,8.91,30-3.43-4.37-9.42-1.21-9.42-1.21-14,22,17.87,51.75,19.92,54.47s-3.41,2-3.41,2c-20.76-9.19-26.72,0-26.72,0-12.43,16.34,49.7,46,50,48a3.44,3.44,0,0,1-1.53,3.24c-54.47-23.15-57-3.58-57-3.58,6.13,16.85,23.15,25.53,23.15,25.53l-2,3.07c-6.12,18.89,22,33,22,33l.17,2.89c-23.66-5.95-20.59,5.45-20.59,5.45C116.6,324.57,155.58,328,155.58,328v2.56c-29.11-3.41-27.41,11.4-27.41,11.4,1.53,9.87,18,12.09,18,12.09,26.88,1.15,33.32,7.9,33.69,8.33-.82-.23-25.53-7.26-26.2,5.62-.68,13.11,30.56,14.73,30.56,14.73l.51,2.3c-11.49,17.1,29.87,17.1,29.87,17.1-3.06,16.6,27.32,13,27.32,13-1,19.41,36.76,14.56,36.76,14.56,8.17,28.59,37.88,34.12,37.88,34.12,9.53,28.09,39.15,29.11,39.15,29.11-16.69,11.92-17.37,27.41-17.37,27.41-40.34-14.81-28.76-73-91.06-68.6s-75.57-20.6-106.21-25.87a162.45,162.45,0,0,0-55.49,0c-1.36,7.32,17.7,21.1,17.7,21.1C13.62,458,0,449,0,449c2.72,20.57,21.79,19.57,21.79,19.57l.51,2.55S6.81,473.68,11.23,482s18.9,5.61,18.05,6.13S26,492.06,26,492.06C22.64,510.61,57,515,57,515l.64,2.81c-1.15-.25-1.28,2.9-1.28,2.9-3.4,14,29.28,16,29.28,16-23.83,12.59,6.81,20.08,6.81,20.08-2.39,14.3,19.06,15,19.06,15,1.36,15,28.26,12.25,28.26,12.25,3.4,19.07,28.59,10.22,28.59,10.22,23.83,18.38,64.34-.68,64.34-.68,6.81,3.74,15.66-3.41,15.66-3.41,23.49-18.38,20.77,4.43,20.77,4.43,17.36-14.64,23.83-6.13,23.83-6.13,13.27-.34,15.32,8.17,15.32,8.17-10.9,14.64-10.9,43.23-10.9,43.23-8.17,4.77-16-1-16-1-11.23-.68-19.74-20.76-35.74-20.08S217.36,649,217.36,649c-31.32,29.27-36.08,68.42-36.08,68.42C137,786.19,169.7,813.08,169.7,813.08c-.34,5.11,7.49,8.85,7.49,8.85,18.39-2.72,15.66-27.57,15.66-27.57,9.19-1.36,10.21-10.21,10.21-10.21,6.47-10.22,8.52-1.37,8.52-1.37,2.38,28.94,36.13,27.64,27.57,21.11-14.87-11.34-6.58-29.69-5.45-29.62l9.88,2.39c-1.71-3.75,0-16.69,0-16.69,18.38,11.24,16.34-17,16.34-17,14.29,1.71,9.19-21.44,9.19-21.44,14.29,1,14.64-10.9,14.64-10.9,9.87-42.21,17-14,23.83-5.78s5.1,83.4,5.1,83.4C299.4,812.06,299.4,905.17,299.4,905.17,262.3,942.78,269.62,959,269.62,959c3.91-12.76,11.23-16.17,11.23-16.17-22.81,39.83-10.21,66.9-10.21,66.9,4.76-20.26,5.62-13.45,5.62-13.45-7.56,40.13,15.37,51.44,16,51.73a30.88,30.88,0,0,1-2.89-13.6c9.53,23.83,16,20.76,16,20.76-5.78-23.32,4.09-26.72,4.09-26.72,8.85,4.26,8.68,32.85,8.68,32.85,12.93-5.62,10.72-25.7,10.72-25.7,12.9,13.4,6.21,29.76,6,30.29,15.33-11.58,17.16-45.27,17.16-45.27,3.4,2.55-1.87,27.23-1.87,27.23,22.76-24.78,5.27-71.1,4.94-72,3.41,2.76,9.53,23.48,9.53,23.48,6.63-6.46-19.58-58.38-19.58-58.38,8.85,7,22,33.7,22,33.7,4.08-41.19-49.87-76.08-49.87-76.08,52.85-74,24.25-164.94,24.25-164.94-13.27-38.55-7.57-71.32-7.57-71.32,2.38-47.83,36.42-48,36.42-48,39.32-44.93,63.49-6.81,63.49-6.81-4.59,25.88,77.62,17.2,77.62,17.2,6.47,32.51,32.85,25.36,32.85,25.36-21.11-20.26-6.81-22-6.81-22,14.81,2.89,20.43-6.3,20.43-6.3-16.51,2.56-11.75-5.27-11.75-5.27,23-20.77,40.51,6.29,40.51,6.29,5.11-12.08-9-21.78-9-21.78,7-5.62,19.41,2.55,19.41,2.55-19.24-29.44-51.29-11.87-52.4-11.25,17-17.34,40.82-4.58,40.82-4.58C574.67,566,600.07,570,601,570.09c-47-18.61-69.41,19.16-69.41,19.16C478.13,596.4,474,550.78,474,550.78c27.07-12.76,53.45-37.1,61.11-74.21s30.13-24.51,41.7-19.91S607,457.85,607,457.85c19.74,1.7,17,21.61,17,21.61C641.19,470.15,631.45,447.8,628.24,444.49Zm-313,426.12c-5.78-18.55,12.94-76.93,12.94-76.93V793C331.92,852.23,315.23,870.61,315.23,870.61Z"/></g><g id="Layer_4" data-name="Layer 4"><path class="cls-1" d="M610.21,417.42s10.22,6,7.75,16l-2.38-5s-4.06,8.34-7.83,2.64c-4.29-6.48,2.92-10.55,5.29-7.66A10.27,10.27,0,0,0,610.21,417.42Z"/></g></g></svg>